<?xml version="1.0" encoding="utf-8"?>
<!-- Generator: Adobe Illustrator 18.1.1, SVG Export Plug-In . SVG Version: 6.00 Build 0)  -->
<!DOCTYPE svg PUBLIC "-//W3C//DTD SVG 1.1//EN" "http://www.w3.org/Graphics/SVG/1.1/DTD/svg11.dtd">
<svg version="1.1" id="Layer_1" xmlns="http://www.w3.org/2000/svg" xmlns:xlink="http://www.w3.org/1999/xlink" x="0px" y="0px"
	 viewBox="0 183 792 245.2" enable-background="new 0 183 792 245.2" xml:space="preserve">
<g>
	<path fill="#FF6033" d="M759.7,187.7l-25.1,25.1c-1.2,1.2-0.3,3.2,1.3,3.2h24.3v1.2v5.1v128.2c0,1,0.8,1.9,1.9,1.9h26.3
		c1,0,1.9-0.8,1.9-1.9V189.1c0-1-0.8-1.9-1.9-1.9H761C760.5,187.2,760,187.4,759.7,187.7z"/>
	<path fill="#FF6033" d="M698.5,258.7c0,0-12.4-5.4-32.8-5.4h-21.1c-1.2,0-2.2-1-2.2-2.2v-32.9c0-1.2,1-2.2,2.2-2.2h44.2
		c0.6,0,1.1-0.2,1.5-0.6l24.4-24.6c1.3-1.4,0.4-3.7-1.5-3.7h-70.8h-30.2c-1.2,0-2.2,1-2.2,2.2v26.7v62.1c0,1.2,1,2.2,2.2,2.2h30.2h4
		h26.6c14.2,0,23.5,9.1,23.5,21.9c0,12.8-9.3,21.9-23.5,21.9h-20.8h-9.7h-30.2c-1.2,0-2.2,1-2.2,2.2v24.6c0,1.2,1,2.2,2.2,2.2H675
		c33.8,0,53.8-23.1,53.8-50.8C728.8,278.9,714.6,264.5,698.5,258.7z"/>
	<path fill="#FF6033" d="M544.9,353c-2.2,0-3-0.7-3.7-2.4l-28.8-61.3H490c-1,0-1.5,0.5-1.5,1.5v59.8c0,1.5-1,2.4-2.5,2.4h-31.2
		c-1.5,0-2.5-1-2.5-2.4V188.2c0-1.5,1-2.4,2.5-2.4h66.6c34.2,0,56.8,21.4,56.8,51.9c0,21.4-11.3,38.4-29.8,46.5l33,65.9
		c0.7,1.5,0,3-1.7,3H544.9z M542.2,237.6c0-12.6-8.9-20.7-22.7-20.7H490c-1,0-1.5,0.5-1.5,1.5V257c0,1,0.5,1.5,1.5,1.5h29.5
		C533.3,258.5,542.2,250.4,542.2,237.6z"/>
	<path fill="#FF6033" d="M290.5,291V187.7c0-1.5,1-2.4,2.5-2.4h31.2c1.5,0,2.4,1,2.4,2.4V292c0,19.9,11.1,31.2,28.1,31.2
		c16.7,0,27.8-11.3,27.8-31.2V187.7c0-1.5,1-2.4,2.4-2.4h31.2c1.5,0,2.5,1,2.5,2.4V291c0,41.6-26.6,64.2-64,64.2
		C317.1,355.2,290.5,332.6,290.5,291z"/>
	<path fill="#FF6033" d="M134.5,315.1c-3.7-11.6-4.7-20.9-4.7-45.8s1-34.2,4.7-45.8c8.6-27,31.7-40.6,61-40.6
		c29.3,0,52.4,13.5,61,40.6c3.7,11.6,4.7,20.9,4.7,45.8s-1,34.2-4.7,45.8c-8.6,27-31.7,40.6-61,40.6
		C166.2,355.7,143.1,342.2,134.5,315.1z M221.8,305.3c2-5.9,2.7-14,2.7-35.9s-0.7-30-2.7-35.9c-3.7-11.5-12.5-18.4-26.3-18.4
		c-13.8,0-22.7,6.9-26.3,18.4c-2,5.9-2.7,14-2.7,35.9s0.7,30,2.7,35.9c3.7,11.5,12.6,18.4,26.3,18.4
		C209.3,323.7,218.1,316.8,221.8,305.3z"/>
	<path fill="#FF6033" d="M0,188.2c0-1.5,1-2.4,2.5-2.4h107.2c1.5,0,2.4,1,2.4,2.4v26.3c0,1.5-1,2.5-2.4,2.5H37.6
		c-1,0-1.5,0.5-1.5,1.5v35.2c0,1,0.5,1.5,1.5,1.5h60c1.5,0,2.4,1,2.4,2.5v26.1c0,1.5-1,2.4-2.4,2.4h-60c-1,0-1.5,0.5-1.5,1.5v63
		c0,1.5-1,2.4-2.5,2.4H2.5C1,353,0,352,0,350.5V188.2z"/>
</g>
<g>
	<g>
		<path fill="#7F8088" d="M129.2,406.7v-0.1c0-11.6,8.7-21.7,21.5-21.7c12.8,0,21.3,10,21.3,21.6v0.1c0,11.6-8.7,21.7-21.5,21.7
			S129.2,418.2,129.2,406.7z M167.1,406.7v-0.1c0-9.5-7-17.3-16.5-17.3c-9.6,0-16.4,7.7-16.4,17.2v0.1c0,9.5,7,17.3,16.5,17.3
			S167.1,416.2,167.1,406.7z"/>
		<path fill="#7F8088" d="M191,387.9c0-1.3,1.1-2.4,2.3-2.4h15.7c5.2,0,9.3,1.6,11.9,4.2c2,2,3.2,5,3.2,8.3v0.1
			c0,6.9-4.7,10.9-11.2,12.2l10.4,13.4c0.5,0.5,0.8,1.1,0.8,1.7c0,1.3-1.2,2.3-2.4,2.3c-1,0-1.7-0.5-2.2-1.3l-11.8-15.3h-12v14.2
			c0,1.3-1.1,2.4-2.4,2.4c-1.3,0-2.3-1.1-2.3-2.4V387.9z M208.7,406.9c6.3,0,10.8-3.2,10.8-8.6v-0.1c0-5.2-4-8.3-10.7-8.3h-12.9v17
			H208.7z"/>
		<path fill="#7F8088" d="M243.5,387.9c0-1.3,1.1-2.4,2.3-2.4h12.2c13.2,0,22.3,9.1,22.3,20.9v0.1c0,11.8-9.1,21-22.3,21h-12.2
			c-1.3,0-2.3-1.1-2.3-2.4V387.9z M258.1,423.1c10.6,0,17.4-7.2,17.4-16.5v-0.1c0-9.3-6.8-16.6-17.4-16.6h-9.8v33.2H258.1z"/>
		<path fill="#7F8088" d="M299.3,425.1v-37.2c0-1.3,1.1-2.4,2.3-2.4h26.1c1.2,0,2.2,1,2.2,2.2s-1,2.2-2.2,2.2H304v14.3h21
			c1.2,0,2.2,1,2.2,2.2c0,1.2-1,2.2-2.2,2.2h-21v14.7h24c1.2,0,2.2,1,2.2,2.2c0,1.2-1,2.2-2.2,2.2h-26.4
			C300.3,427.5,299.3,426.4,299.3,425.1z"/>
		<path fill="#7F8088" d="M347.5,387.9c0-1.3,1.1-2.4,2.3-2.4h15.7c5.2,0,9.3,1.6,11.9,4.2c2,2,3.2,5,3.2,8.3v0.1
			c0,6.9-4.7,10.9-11.2,12.2l10.4,13.4c0.5,0.5,0.8,1.1,0.8,1.7c0,1.3-1.2,2.3-2.4,2.3c-1,0-1.7-0.5-2.2-1.3l-11.8-15.3h-12v14.2
			c0,1.3-1.1,2.4-2.4,2.4c-1.3,0-2.3-1.1-2.3-2.4V387.9z M365.1,406.9c6.3,0,10.8-3.2,10.8-8.6v-0.1c0-5.2-4-8.3-10.7-8.3h-12.9v17
			H365.1z"/>
		<path fill="#7F8088" d="M397.3,406.7v-0.1c0-11.9,8.9-21.7,21.2-21.7c6.8,0,11.1,2.2,15,5.5c0.5,0.4,1,1.1,1,1.9
			c0,1.3-1.1,2.3-2.4,2.3c-0.7,0-1.2-0.3-1.6-0.5c-3.2-2.9-6.9-4.8-12-4.8c-9.3,0-16.2,7.6-16.2,17.2v0.1c0,9.7,7,17.3,16.2,17.3
			c5.2,0,8.9-1.8,12.5-5.1c0.4-0.4,0.9-0.7,1.5-0.7c1.2,0,2.3,1.1,2.3,2.3c0,0.7-0.4,1.3-0.8,1.7c-4.1,3.8-8.7,6.2-15.6,6.2
			C406.2,428.2,397.3,418.7,397.3,406.7z"/>
		<path fill="#7F8088" d="M452.6,387.6c0-1.3,1.1-2.4,2.3-2.4c1.3,0,2.4,1.1,2.4,2.4v35.5h21.8c1.2,0,2.2,1,2.2,2.2
			c0,1.2-1,2.2-2.2,2.2h-24.2c-1.3,0-2.3-1.1-2.3-2.4V387.6z"/>
		<path fill="#7F8088" d="M493.6,406.7v-0.1c0-11.6,8.7-21.7,21.5-21.7c12.8,0,21.3,10,21.3,21.6v0.1c0,11.6-8.7,21.7-21.5,21.7
			C502.2,428.2,493.6,418.2,493.6,406.7z M531.5,406.7v-0.1c0-9.5-7-17.3-16.5-17.3c-9.6,0-16.4,7.7-16.4,17.2v0.1
			c0,9.5,7,17.3,16.5,17.3C524.7,423.9,531.5,416.2,531.5,406.7z"/>
		<path fill="#7F8088" d="M554.8,409.9v-22.3c0-1.3,1.1-2.4,2.3-2.4c1.3,0,2.4,1.1,2.4,2.4v22c0,9.1,4.9,14.1,12.8,14.1
			c7.7,0,12.6-4.7,12.6-13.8v-22.3c0-1.3,1.1-2.4,2.4-2.4c1.3,0,2.3,1.1,2.3,2.4v21.9c0,12.2-7,18.6-17.5,18.6
			C561.9,428.2,554.8,421.8,554.8,409.9z"/>
		<path fill="#7F8088" d="M610.5,387.9c0-1.3,1.1-2.4,2.3-2.4H625c13.2,0,22.3,9.1,22.3,20.9v0.1c0,11.8-9.1,21-22.3,21h-12.2
			c-1.3,0-2.3-1.1-2.3-2.4V387.9z M625,423.1c10.6,0,17.4-7.2,17.4-16.5v-0.1c0-9.3-6.8-16.6-17.4-16.6h-9.8v33.2H625z"/>
	</g>
	<g>
		<g>
			<path fill="#7F8088" d="M653.6,388H651c-0.5,0-0.9-0.5-0.9-1c0-0.5,0.4-1,0.9-1h7.4c0.5,0,0.9,0.4,0.9,1c0,0.5-0.4,1-0.9,1h-2.7
				v8.3c0,0.6-0.5,1-1.1,1c-0.6,0-1-0.5-1-1V388z M661.5,386.9c0-0.6,0.5-1,1-1h0.3c0.5,0,0.8,0.3,1,0.5l3.3,5.3l3.4-5.3
				c0.2-0.4,0.5-0.5,0.9-0.5h0.3c0.5,0,1,0.5,1,1v9.3c0,0.6-0.5,1-1,1c-0.5,0-1-0.4-1-1v-6.5l-2.6,4c-0.2,0.3-0.5,0.5-0.9,0.5
				c-0.4,0-0.6-0.2-0.9-0.5l-2.6-4v6.4c0,0.6-0.5,1-1,1c-0.6,0-1-0.4-1-1V386.9z"/>
		</g>
	</g>
	<g>
		<line fill="#7F8088" x1="109" y1="411" x2="1" y2="411"/>
		<path fill="#7F8088" d="M111,411H1.9c-1,0-1.9-1-1.9-2s0.8-2,1.9-2H111c1,0,1.9,1,1.9,2S112,411,111,411z"/>
	</g>
	<g>
		<line fill="#7F8088" x1="789" y1="411" x2="673" y2="411"/>
		<path fill="#7F8088" d="M788.5,411H672.1c-1,0-1.9-1-1.9-2s0.8-2,1.9-2h116.4c1,0,1.9,1,1.9,2S789.5,411,788.5,411z"/>
	</g>
</g>
</svg>
